<svg height="512" viewBox="0 0 512 512" width="512" xmlns="http://www.w3.org/2000/svg"><g><path d="m496 40v24h-480v-24a24.006 24.006 0 0 1 24-24h432a24.006 24.006 0 0 1 24 24z" fill="#57a4ff"/><g fill="#004fac"><path d="m472 8h-432a32.03 32.03 0 0 0 -32 32v432a32.03 32.03 0 0 0 32 32h432a32.03 32.03 0 0 0 32-32v-432a32.03 32.03 0 0 0 -32-32zm16 464a16.021 16.021 0 0 1 -16 16h-432a16.021 16.021 0 0 1 -16-16v-400h464zm0-416h-464v-16a16.021 16.021 0 0 1 16-16h432a16.021 16.021 0 0 1 16 16z"/><circle cx="39" cy="40" r="8"/><circle cx="64" cy="40" r="8"/><circle cx="88" cy="40" r="8"/><path d="m456 424h-224a8 8 0 0 0 0 16h224a8 8 0 0 0 0-16z"/><path d="m424 448h-96a8 8 0 0 0 0 16h96a8 8 0 0 0 0-16z"/><path d="m456 448h-8a8 8 0 0 0 0 16h8a8 8 0 0 0 0-16z"/><path d="m288 376a32.036 32.036 0 0 0 32-32v-144a32.036 32.036 0 0 0 -32-32h-64a32.036 32.036 0 0 0 -32 32v144a32.036 32.036 0 0 0 32 32zm-80-32v-144a16.019 16.019 0 0 1 16-16h64a16.019 16.019 0 0 1 16 16v144a16.019 16.019 0 0 1 -16 16h-64a16.019 16.019 0 0 1 -16-16z"/><path d="m464 272a8 8 0 0 1 -8 8h-16v88a8 8 0 0 1 -16 0v-88h-80a8 8 0 0 1 -8-8v-96a8 8 0 0 1 16 0v88h72v-88a8 8 0 0 1 16 0v88h16a8 8 0 0 1 8 8z"/><path d="m168 264h-16v-88a8 8 0 0 0 -16 0v88h-72v-88a8 8 0 0 0 -16 0v96a8 8 0 0 0 8 8h80v88a8 8 0 0 0 16 0v-88h16a8 8 0 0 0 0-16z"/><path d="m56 104h104a8 8 0 0 0 0-16h-104a8 8 0 0 0 0 16z"/><path d="m56 128h32a8 8 0 0 0 0-16h-32a8 8 0 0 0 0 16z"/><path d="m112 112a8 8 0 0 0 0 16h8a8 8 0 0 0 0-16z"/></g></g></svg>